<mxfile host="app.diagrams.net" modified="2023-12-10T05:56:04.805Z" agent="Mozilla/5.0 (Windows NT 10.0; Win64; x64) AppleWebKit/537.36 (KHTML, like Gecko) Chrome/120.0.0.0 Safari/537.36" version="22.1.7" etag="UI5tb47oNl98y5BB2GB2" type="github">
  <diagram name="第 1 页" id="wPHbWRYP0dzNJmQhNw-O">
    <mxGraphModel>
      <root>
        <mxCell id="0" />
        <mxCell id="1" parent="0" />
      </root>
    </mxGraphModel>
  </diagram>
</mxfile>
